<svg xmlns="http://www.w3.org/2000/svg" width="860" height="340" viewBox="0 0 860 340" font-family="ui-monospace, SFMono-Regular, Menlo, Consolas, monospace"><defs><linearGradient id="bbg" x1="0" y1="0" x2="0" y2="1"><stop offset="0" stop-color="#161b22"/><stop offset="1" stop-color="#0d1117"/></linearGradient></defs><rect width="860" height="340" rx="12" fill="url(#bbg)"/><rect x="0.5" y="0.5" width="859" height="339" rx="12" fill="none" stroke="#30363d"/><rect x="0" y="0" width="860" height="45" rx="12" fill="#161b22"/><rect x="0" y="33" width="860" height="12" fill="#161b22"/><line x1="0" y1="45" x2="860" y2="45" stroke="#30363d"/><circle cx="25" cy="22.5" r="5" fill="#ff5f56"/><circle cx="41" cy="22.5" r="5" fill="#ffbd2e"/><circle cx="57" cy="22.5" r="5" fill="#27c93f"/><rect x="190.0" y="9" width="480" height="26" rx="13" fill="#0d1117" stroke="#30363d"/><text x="430.0" y="26" fill="#38bdf8" font-size="11.5" text-anchor="middle">https://raghav-1729-diablo-ai-agent.hf.space</text><g opacity="0"><rect x="40" y="70" width="780" height="52" rx="8" fill="#21262d" stroke="#30363d"/><text x="60" y="92" fill="#7d8590" font-size="12" font-weight="700">USER</text><text x="60" y="109" fill="#c9d1d9" font-size="12">Who is Raghavendra and what is Diablo?</text><animate attributeName="opacity" from="0" to="1" begin="0.20s" dur="0.4s" fill="freeze"/></g><g opacity="0"><rect x="40" y="142" width="780" height="96" rx="8" fill="#0d1117" stroke="#38bdf8" stroke-width="1.5"/><text x="60" y="166" fill="#38bdf8" font-size="12" font-weight="700">DIABLO_AGENT</text><text x="60" y="186" fill="#c9d1d9" font-size="12">I am an autonomous AI agent built by Raghavendra. He is a Software</text><text x="60" y="204" fill="#c9d1d9" font-size="12">Engineering Student at Scaler School of Technology focusing on AI and RAG.</text><text x="60" y="222" fill="#38bdf8" font-size="12" font-weight="700">Click anywhere on this browser to start chatting with me live! 💬</text><animate attributeName="opacity" from="0" to="1" begin="0.60s" dur="0.4s" fill="freeze"/></g><g opacity="0"><rect x="40" y="258" width="780" height="40" rx="20" fill="#161b22" stroke="#30363d"/><text x="60" y="282" fill="#7d8590" font-size="12">Type a message to Diablo... <tspan fill="#c9d1d9">|</tspan></text><animate attributeName="opacity" from="0" to="1" begin="1.00s" dur="0.4s" fill="freeze"/></g></svg>